# xmcd CD database file
#
# Track frame offsets:
#	150
#	30604
#	71811
#	98566
#	123253
#	150279
#	181028
#	204497
#	225838
#	255186
#	284146
#
# Disc length: 4046 seconds
#
# Revision: 0
# Processed by: cddbd v1.5.2PL0 Copyright (c) Steve Scherf et al.
# Submitted via: CDex 1.70beta2
#
DISCID=820fcc0b
DTITLE=Stéphane Guillaume - Windmills Chronicles
DYEAR=2008
DGENRE=Jazz
TTITLE0=La légende de l'Uirapuru
TTITLE1=Fields of nothing
TTITLE2=The man with the skullcap
TTITLE3=Noéline
TTITLE4=A helicon on the lookout
TTITLE5=For Kenny
TTITLE6=L'amphi en fard
TTITLE7=Valse d'or
TTITLE8=Nounoucet
TTITLE9=Vent sur le reg
TTITLE10=Ballade irlandaise
EXTD=YEAR: 2008
EXTT0=
EXTT1=
EXTT2=
EXTT3=
EXTT4=
EXTT5=
EXTT6=
EXTT7=
EXTT8=
EXTT9=
EXTT10=
PLAYORDER=
